<?xml version="1.0" encoding="UTF-8"?>
<svg id="Camada_1" data-name="Camada 1" xmlns="http://www.w3.org/2000/svg" xmlns:xlink="http://www.w3.org/1999/xlink" viewBox="0 0 494.85 499.94">
  <defs>
    <style>
      .cls-1 {
        fill: url(#Gradiente_sem_nome_50);
      }

      .cls-2 {
        fill: url(#Gradiente_sem_nome_50-11);
      }

      .cls-3 {
        fill: url(#Gradiente_sem_nome_50-10);
      }

      .cls-4 {
        fill: url(#Gradiente_sem_nome_50-12);
      }

      .cls-5 {
        fill: url(#Gradiente_sem_nome_50-2);
      }

      .cls-6 {
        fill: url(#Gradiente_sem_nome_50-8);
      }

      .cls-7 {
        fill: url(#Gradiente_sem_nome_50-3);
      }

      .cls-8 {
        fill: url(#Gradiente_sem_nome_50-7);
      }

      .cls-9 {
        fill: url(#Gradiente_sem_nome_50-6);
      }

      .cls-10 {
        fill: url(#Gradiente_sem_nome_50-5);
      }

      .cls-11 {
        fill: url(#Gradiente_sem_nome_50-4);
      }

      .cls-12 {
        fill: url(#Gradiente_sem_nome_50-9);
      }

      .cls-13 {
        clip-path: url(#clippath);
      }
    </style>
    <linearGradient id="Gradiente_sem_nome_50" data-name="Gradiente sem nome 50" x1="51.58" y1="324.09" x2="443.34" y2="324.09" gradientUnits="userSpaceOnUse">
      <stop offset="0" stop-color="#5a9cca"/>
      <stop offset="1" stop-color="#3d6a9b"/>
    </linearGradient>
    <linearGradient id="Gradiente_sem_nome_50-2" data-name="Gradiente sem nome 50" x1=".25" y1="159.63" x2="151.9" y2="159.63" xlink:href="#Gradiente_sem_nome_50"/>
    <linearGradient id="Gradiente_sem_nome_50-3" data-name="Gradiente sem nome 50" x1="0" y1="331.46" x2="126.86" y2="331.46" xlink:href="#Gradiente_sem_nome_50"/>
    <linearGradient id="Gradiente_sem_nome_50-4" data-name="Gradiente sem nome 50" x1="73.58" y1="76.05" x2="245.89" y2="76.05" xlink:href="#Gradiente_sem_nome_50"/>
    <linearGradient id="Gradiente_sem_nome_50-5" data-name="Gradiente sem nome 50" x1="249.03" y1="76.04" x2="421.34" y2="76.04" xlink:href="#Gradiente_sem_nome_50"/>
    <linearGradient id="Gradiente_sem_nome_50-6" data-name="Gradiente sem nome 50" x1="342.74" y1="159.64" x2="494.83" y2="159.64" xlink:href="#Gradiente_sem_nome_50"/>
    <linearGradient id="Gradiente_sem_nome_50-7" data-name="Gradiente sem nome 50" x1="368.31" y1="331.39" x2="494.85" y2="331.39" xlink:href="#Gradiente_sem_nome_50"/>
    <linearGradient id="Gradiente_sem_nome_50-8" data-name="Gradiente sem nome 50" x1="79.79" y1="199.56" x2="178.8" y2="199.56" xlink:href="#Gradiente_sem_nome_50"/>
    <linearGradient id="Gradiente_sem_nome_50-9" data-name="Gradiente sem nome 50" x1="79.79" y1="199.56" x2="178.8" y2="199.56" xlink:href="#Gradiente_sem_nome_50"/>
    <clipPath id="clippath">
      <path class="cls-12" d="M178.8,204.59l-82.33-33.61c-16.09-3.67-22.96,14.7-9.58,23.5l79.05,34.13,1.43-3.12,11.44-20.9Z"/>
    </clipPath>
    <linearGradient id="Gradiente_sem_nome_50-10" data-name="Gradiente sem nome 50" x1="73.51" y1="197.96" x2="79.79" y2="197.96" xlink:href="#Gradiente_sem_nome_50"/>
    <linearGradient id="Gradiente_sem_nome_50-11" data-name="Gradiente sem nome 50" x1="228.59" y1="323.78" x2="266.01" y2="323.78" xlink:href="#Gradiente_sem_nome_50"/>
    <linearGradient id="Gradiente_sem_nome_50-12" data-name="Gradiente sem nome 50" x1="230.06" y1="416.54" x2="264.82" y2="416.54" xlink:href="#Gradiente_sem_nome_50"/>
  </defs>
  <g id="MNpJ6d.tif">
    <g>
      <path class="cls-1" d="M403.45,499.94H91.46l-.74-.17c-24.55-5.59-41.28-28.12-38.92-52.39.91-9.37,5.78-17.95,10.07-25.52.81-1.43,1.61-2.84,2.36-4.22,26.6-48.84,55.55-97.51,83.55-144.58,20.73-34.86,42.17-70.9,62.45-106.66l.68-.99c9.35-11.23,23.04-17.59,37.45-17.16,14.85.33,28.6,7.43,37.73,19.46l.53.82c22.18,40.21,46.09,80.48,69.2,119.42,25.06,42.21,50.98,85.87,74.84,129.69.75,1.38,1.55,2.78,2.36,4.21,4.29,7.57,9.16,16.15,10.07,25.52,2.36,24.27-14.38,46.79-38.92,52.39l-.74.17ZM93.01,486.46h308.9c17.56-4.35,29.47-20.46,27.79-37.76-.63-6.52-4.57-13.46-8.38-20.17-.85-1.5-1.69-2.98-2.48-4.42-23.75-43.6-49.6-87.15-74.6-129.25-23.09-38.88-46.95-79.09-69.17-119.34-6.63-8.51-16.45-13.52-27.01-13.76-10.11-.27-19.72,4.09-26.41,11.86-20.25,35.7-41.62,71.62-62.28,106.36-27.93,46.96-56.82,95.52-83.3,144.13-.79,1.45-1.63,2.92-2.48,4.42-3.81,6.71-7.75,13.65-8.38,20.17h0c-1.68,17.31,10.22,33.42,27.79,37.77Z"/>
      <path class="cls-5" d="M.25,245.81v-14.82l1-1.71c3.07-55.08,27.32-110.34,66.66-151.81l3.82-4.02,80.18,80.36-17.4,23.18-3.53-.96c-5.32-1.45-10.85-4-16.2-6.47-8.49-3.93-17.28-7.99-24.67-7.4-8.66.67-17.22,8.55-18.33,16.85-2.34,17.53,9.34,22.81,28.58,29.96,4.75,1.76,9.66,3.59,14.11,5.76l3.56,1.74-4.38,29.2-113.39.15ZM11.04,233.9v1.11l93.31-.13,1.82-12.09c-3-1.28-6.21-2.48-9.56-3.72-17.42-6.47-39.11-14.54-35.52-41.49,1.78-13.37,14.42-25.11,28.18-26.19,10.23-.81,20.3,3.86,30.04,8.37,3.87,1.79,7.58,3.5,11.06,4.76l7.29-9.72-65.7-65.84C36.29,128.43,14.49,179.93,11.95,231.13l-.06,1.31-.85,1.46Z"/>
      <path class="cls-7" d="M64.73,413.97l-4.98-5.86c-29.49-34.69-48.91-76.13-56.16-119.83-1.37-8.24-2.83-17.72-3.34-25.63-.1-1.63-.06-3.19-.02-4.69.03-1.13.07-2.26.02-3.37l-.25-5.65,113.49.15.81,4.42c.62,3.4,1.1,6.81,1.56,10.1.64,4.59,1.25,8.92,2.21,13.26,1.14,5.12,2.82,10.02,4.61,15.2,1.22,3.55,2.48,7.22,3.56,10.98l.62,2.19-62.13,108.73ZM10.99,259.75c-.01.77,0,1.51.04,2.22.47,7.43,1.89,16.58,3.21,24.55,6.52,39.3,23.35,76.7,48.82,108.64l52.16-91.29c-.84-2.73-1.77-5.44-2.75-8.27-1.8-5.24-3.67-10.66-4.94-16.38-1.06-4.76-1.72-9.51-2.36-14.1-.24-1.73-.49-3.49-.76-5.24l-93.43-.13Z"/>
      <path class="cls-11" d="M154.18,152.08l-80.6-80.44,3.98-3.82C120.98,26.18,180.32,1.52,240.37.14l5.52-.13v114.11l-5.07.3c-30.85,1.85-59.5,13.72-82.84,34.31l-3.8,3.35ZM89.05,71.84l65.64,65.51c23.13-19.09,50.73-30.53,80.41-33.31V11.12c-53.65,2.56-106.31,24.45-146.04,60.72Z"/>
      <path class="cls-10" d="M340.75,152.07l-3.8-3.33c-23.47-20.61-52.12-32.48-82.86-34.32l-5.07-.3V0l5.53.14c60.1,1.5,119.44,26.17,162.8,67.68l3.99,3.81-80.59,80.44ZM259.82,104.04c29.57,2.78,57.18,14.22,80.4,33.32l65.64-65.51c-39.69-36.15-92.34-58.04-146.04-60.71v92.91Z"/>
      <path class="cls-9" d="M494.83,245.8h-114.09l-.34-5.03c-2.1-31.13-13.96-59.79-34.31-82.9l-3.34-3.8,80.44-80.61,3.82,3.99c41.81,43.73,65.84,101.54,67.67,162.79l.17,5.56ZM390.74,235.02h92.91c-2.9-54.65-24.28-106.12-60.68-146.06l-65.5,65.64c18.87,22.92,30.3,50.54,33.28,80.42Z"/>
      <path class="cls-8" d="M429.61,413.83l-61.3-107.58.41-1.99c1.06-5.13,2.72-10.04,4.33-14.78,1.55-4.57,3.01-8.88,3.98-13.37,1.06-4.94,1.7-9.86,2.39-15.08.33-2.49.65-4.99,1.03-7.49l.69-4.6h113.72l-.18,5.57c-1.93,57.68-23.26,112.26-60.06,153.68l-5,5.62ZM379.73,304.49l51.74,90.81c30.97-37.41,49.33-85.08,52.16-135.56h-93.16c-.12.9-.24,1.8-.36,2.69-.68,5.2-1.38,10.57-2.54,15.94-1.09,5.1-2.73,9.91-4.31,14.57-1.34,3.96-2.62,7.74-3.54,11.54Z"/>
      <g>
        <path class="cls-6" d="M178.8,204.59l-82.33-33.61c-16.09-3.67-22.96,14.7-9.58,23.5l79.05,34.13,1.43-3.12,11.44-20.9Z"/>
        <g class="cls-13">
          <rect class="cls-3" x="73.51" y="167.31" width="6.29" height="61.3"/>
        </g>
      </g>
      <path class="cls-2" d="M237.84,381.4c6.53,6.4,21.98,3.33,22.46-7.21.96-30.85,4.48-61.6,5.07-92.46.11-5.75,2.61-9.55-3.09-14.84-6.99-6.48-33.16-6.07-33.69,7.99,3.76,32.24,2.32,66.33,5.93,98.41.29,2.55,1.51,6.34,3.32,8.12Z"/>
    </g>
  </g>
  <circle class="cls-4" cx="247.44" cy="416.54" r="17.38"/>
</svg>