<?xml version="1.0" encoding="UTF-8"?>
<svg id="Camada_1" data-name="Camada 1" xmlns="http://www.w3.org/2000/svg" xmlns:xlink="http://www.w3.org/1999/xlink" viewBox="0 0 566.93 611.27">
  <defs>
    <style>
      .cls-1 {
        fill: url(#Gradiente_sem_nome_50-2);
        filter: url(#drop-shadow-6);
      }

      .cls-2 {
        fill: url(#Gradiente_sem_nome_50);
        filter: url(#drop-shadow-5);
      }

      .cls-3 {
        fill: url(#Gradiente_sem_nome_34);
        stroke: url(#Gradiente_sem_nome_55);
        stroke-miterlimit: 10;
      }
    </style>
    <linearGradient id="Gradiente_sem_nome_34" data-name="Gradiente sem nome 34" x1="471.45" y1="648.64" x2="95.48" y2="-2.54" gradientUnits="userSpaceOnUse">
      <stop offset="0" stop-color="#283c7a"/>
      <stop offset=".03" stop-color="#22336a"/>
      <stop offset=".07" stop-color="#192754"/>
      <stop offset=".12" stop-color="#131e43"/>
      <stop offset=".19" stop-color="#0f1837"/>
      <stop offset=".28" stop-color="#0c1430"/>
      <stop offset=".53" stop-color="#0c142f"/>
      <stop offset=".67" stop-color="#0d1531"/>
      <stop offset=".77" stop-color="#101a3b"/>
      <stop offset=".85" stop-color="#16234b"/>
      <stop offset=".93" stop-color="#1e2e61"/>
      <stop offset="1" stop-color="#283c7a"/>
    </linearGradient>
    <linearGradient id="Gradiente_sem_nome_55" data-name="Gradiente sem nome 55" x1="0" y1="323.05" x2="566.93" y2="323.05" gradientUnits="userSpaceOnUse">
      <stop offset="0" stop-color="#77b6e1"/>
      <stop offset=".11" stop-color="#6db3df"/>
      <stop offset=".28" stop-color="#54abdd"/>
      <stop offset=".5" stop-color="#2b9fd8"/>
      <stop offset=".57" stop-color="#1e9cd7"/>
      <stop offset=".87" stop-color="#0075be"/>
      <stop offset=".99" stop-color="#005b97"/>
    </linearGradient>
    <linearGradient id="Gradiente_sem_nome_50" data-name="Gradiente sem nome 50" x1="63.1" y1="58.92" x2="138.32" y2="58.92" gradientUnits="userSpaceOnUse">
      <stop offset="0" stop-color="#5a9cca"/>
      <stop offset="1" stop-color="#3d6a9b"/>
    </linearGradient>
    <filter id="drop-shadow-5" x="54.9" y="0" width="106" height="132" filterUnits="userSpaceOnUse">
      <feOffset dx="7" dy="7"/>
      <feGaussianBlur result="blur" stdDeviation="5"/>
      <feFlood flood-color="#062333" flood-opacity=".5"/>
      <feComposite in2="blur" operator="in"/>
      <feComposite in="SourceGraphic"/>
    </filter>
    <linearGradient id="Gradiente_sem_nome_50-2" data-name="Gradiente sem nome 50" x1="148.66" x2="223.88" xlink:href="#Gradiente_sem_nome_50"/>
    <filter id="drop-shadow-6" x="139.9" y="0" width="106" height="132" filterUnits="userSpaceOnUse">
      <feOffset dx="7" dy="7"/>
      <feGaussianBlur result="blur-2" stdDeviation="5"/>
      <feFlood flood-color="#062333" flood-opacity=".5"/>
      <feComposite in2="blur-2" operator="in"/>
      <feComposite in="SourceGraphic"/>
    </filter>
  </defs>
  <rect class="cls-3" x=".5" y="35.33" width="565.93" height="575.45" rx="40.17" ry="40.17"/>
  <g>
    <path class="cls-2" d="M100.71,34c-2.16,0-4.28.19-6.35.54-1.16.2-2.18-.79-2-1.95,1.44-9.21,4.13-17.34,5.88-22.02.5-1.33-1.02-2.49-2.18-1.68-19.84,13.69-32.87,36.54-32.96,62.45,0,0,0,0,0,0,0,.09,0,.18,0,.28,0,21.26,17.64,38.4,39.07,37.58,19.49-.74,35.38-16.62,36.12-36.12.81-21.44-16.32-39.07-37.58-39.07Z"/>
    <path class="cls-1" d="M186.27,34c-2.16,0-4.28.19-6.35.54-1.16.2-2.18-.79-2-1.95,1.44-9.21,4.13-17.34,5.88-22.02.5-1.33-1.02-2.49-2.18-1.68-19.84,13.69-32.87,36.54-32.96,62.45,0,0,0,0,0,0,0,.09,0,.18,0,.28,0,21.26,17.64,38.4,39.07,37.58,19.49-.74,35.38-16.62,36.12-36.12.81-21.44-16.32-39.07-37.58-39.07Z"/>
  </g>
</svg>