<?xml version="1.0" encoding="UTF-8"?>
<svg id="Camada_1" data-name="Camada 1" xmlns="http://www.w3.org/2000/svg" viewBox="0 0 69.26 69.93">
  <defs>
    <style>
      .cls-1 {
        fill: #6ca8dc;
      }
    </style>
  </defs>
  <path class="cls-1" d="M58.72,9.74C51.75,2.81,43.36-.42,33.53.04c-6.34.3-12.08,2.08-17.22,5.34-4.72,2.97-8.51,6.91-11.38,11.83C1.69,22.76.11,28.67.17,34.93c.03,5.98,1.67,11.88,4.9,17.72-.56,1.7-3.32,9.83-4.96,14.69-.52,1.53.9,2.98,2.44,2.5,5.54-1.73,14.94-4.74,15.49-4.92,5.64,2.9,11.22,4.36,16.72,4.36,9.51-.03,17.67-3.46,24.49-10.29,6.8-6.8,10.13-15.1,10-24.89-.16-9.33-3.67-17.46-10.54-24.35ZM51.65,49.74c-1.76,1.68-3.98,2.57-6.62,2.64-2.65.08-6.3-.96-10.94-3.1-5.6-2.57-10.63-6.92-15.08-13.07-2.68-3.72-4.25-6.82-4.71-9.32-.65-3.34-.15-6.24,1.49-8.69,1.76-2.69,4.26-3.67,7.48-2.94.39.43,1.15,2.05,2.31,4.89,1.34,3.27,1.99,5.01,1.95,5.24-.08.69-.64,1.52-1.67,2.47-1.04.99-1.57,1.8-1.61,2.41-.04.69.84,2.17,2.64,4.43,1.92,2.5,4.38,4.63,7.37,6.39,2.38,1.42,4,2.07,4.89,1.95.8-.12,1.65-.92,2.53-2.41.88-1.54,1.73-2.37,2.53-2.47.53-.08,2.27.57,5.23,1.95,1.85.89,3.37,1.74,4.6,2.59.31,2.84-.5,5.17-2.41,7.02Z"/>
</svg>
