<?xml version="1.0" encoding="UTF-8"?>
<svg id="Camada_1" data-name="Camada 1" xmlns="http://www.w3.org/2000/svg" viewBox="0 0 292.22 269.94">
  <defs>
    <style>
      .cls-1 {
        fill: #5b9dcb;
      }
    </style>
  </defs>
  <g id="cgqutN.tif">
    <g>
      <path class="cls-1" d="M292.12,74.18v174.05c-2.56,11.13-11.06,19.9-22.54,21.67l-245.93.03c-9.79.41-23.65-12.54-23.65-21.99V74.18c4.78,4.75,9.81,9,15.23,13.01,16.91,12.53,35.46,24.12,52.85,36.15,21.07,14.58,55.09,45.05,81.15,43.27,22.74-1.55,57.26-31.09,76.53-44.42,17.3-11.96,36.21-23.52,52.85-36.15,4.82-3.66,9.13-7.73,13.51-11.88Z"/>
      <path class="cls-1" d="M292.12,21.7c-.22,2.94.31,6.25,0,9.13-1.44,13.46-12.48,27.51-22.55,35.92-33.28,22.06-65.44,47.88-99.02,69.28-20.82,13.27-28.15,13.27-48.97,0-33.58-21.4-65.63-47.37-99.02-69.28C-.51,50.17-13.66,8.05,23.09,0l246.5.02c11.57,2,19.74,10.44,22.53,21.68Z"/>
    </g>
  </g>
</svg>