<?xml version="1.0" encoding="UTF-8"?>
<svg id="Camada_1" data-name="Camada 1" xmlns="http://www.w3.org/2000/svg" viewBox="0 0 68.29 68.29">
  <defs>
    <style>
      .cls-1 {
        fill: #6ca8dc;
      }
    </style>
  </defs>
  <path class="cls-1" d="M68.25,18.81C68.23,8.42,59.77-.01,49.39,0l-30.58.04C8.42.06-.01,8.52,0,18.9l.04,30.58c.01,10.39,8.47,18.82,18.86,18.81l30.58-.04c10.39-.01,18.82-8.48,18.81-18.86l-.04-30.58ZM34.17,51.73c-9.7.01-17.6-7.86-17.61-17.56-.01-9.7,7.86-17.6,17.56-17.61,9.7-.01,17.6,7.86,17.61,17.56.01,9.7-7.87,17.6-17.56,17.61ZM55.59,18.98c-.83.83-1.97,1.3-3.14,1.3-1.17,0-2.31-.47-3.14-1.29-.83-.83-1.31-1.97-1.31-3.14,0-1.17.47-2.32,1.3-3.14.82-.83,1.97-1.3,3.13-1.3,1.17,0,2.32.47,3.14,1.29.83.82,1.3,1.97,1.31,3.14,0,1.16-.47,2.31-1.3,3.14Z"/>
  <path class="cls-1" d="M34.13,22.61c-6.36,0-11.52,5.19-11.51,11.55,0,6.36,5.19,11.52,11.55,11.51,6.36,0,11.52-5.19,11.51-11.55,0-6.36-5.19-11.52-11.55-11.51Z"/>
</svg>