<?xml version="1.0" encoding="UTF-8"?>
<svg id="Camada_1" data-name="Camada 1" xmlns="http://www.w3.org/2000/svg" viewBox="0 0 59.03 59.03">
  <defs>
    <style>
      .cls-1 {
        fill: #6ca8dc;
        fill-rule: evenodd;
      }
    </style>
  </defs>
  <path class="cls-1" d="M57.58,50.61l-12.82-12.82c-.07-.07-.15-.12-.22-.18,2.52-3.83,4-8.41,4-13.34C48.54,10.87,37.67,0,24.27,0S0,10.87,0,24.27s10.86,24.27,24.27,24.27c4.93,0,9.51-1.47,13.34-4,.06.07.11.15.18.22l12.82,12.82c1.93,1.93,5.05,1.93,6.98,0,1.93-1.93,1.93-5.05,0-6.98h0ZM24.27,40.12c-8.76,0-15.86-7.1-15.86-15.86s7.1-15.86,15.86-15.86,15.86,7.1,15.86,15.86-7.1,15.86-15.86,15.86h0ZM24.27,40.12"/>
</svg>