<?xml version="1.0" encoding="UTF-8"?>
<svg id="Camada_1" data-name="Camada 1" xmlns="http://www.w3.org/2000/svg" xmlns:xlink="http://www.w3.org/1999/xlink" viewBox="0 0 477.29 481.18">
  <defs>
    <style>
      .cls-1 {
        fill: url(#Gradiente_sem_nome_50);
      }

      .cls-2 {
        fill: url(#Gradiente_sem_nome_50-2);
      }

      .cls-3 {
        fill: url(#Gradiente_sem_nome_50-3);
      }

      .cls-4 {
        fill: url(#Gradiente_sem_nome_50-4);
      }
    </style>
    <linearGradient id="Gradiente_sem_nome_50" data-name="Gradiente sem nome 50" x1="0" y1="240.59" x2="437.69" y2="240.59" gradientUnits="userSpaceOnUse">
      <stop offset="0" stop-color="#5a9cca"/>
      <stop offset="1" stop-color="#3d6a9b"/>
    </linearGradient>
    <linearGradient id="Gradiente_sem_nome_50-2" data-name="Gradiente sem nome 50" x1="397.92" y1="58.74" x2="477.25" y2="58.74" xlink:href="#Gradiente_sem_nome_50"/>
    <linearGradient id="Gradiente_sem_nome_50-3" data-name="Gradiente sem nome 50" x1="405.91" y1="126.05" x2="477.29" y2="126.05" xlink:href="#Gradiente_sem_nome_50"/>
    <linearGradient id="Gradiente_sem_nome_50-4" data-name="Gradiente sem nome 50" x1="374.23" y1="35.1" x2="398.02" y2="35.1" xlink:href="#Gradiente_sem_nome_50"/>
  </defs>
  <g id="_6QYzjy.tif" data-name="6QYzjy.tif">
    <g>
      <path class="cls-1" d="M435.29,245.47c-1.54,1.38-4.75,2.06-6.78,2.63-37.67,10.63-79.81,16.28-118.4,26.06-48.81,12.36-107.09,36.64-150.59,62.15-2.15,1.26-7.48,3.55-6.45,6.4,19.24,29.1,42.8,56.65,61.7,85.82,21.22,32.76-6.94,64.81-41.13,48.05-25.53-29.52-48.05-62.52-70.75-94.51-.79-1.12-1.67-2.25-1.76-3.69-48.8,33.71-112.97-8.71-99.25-67.11,8.41-35.79,55.21-54.49,81.47-76.85,17.08-14.55,37.71-36.8,53.45-53.42,34.55-36.47,56.49-71.9,82.51-114.4,11.67-19.06,23.67-44.17,36.36-61.6,4.18-5.75,9.91-7.09,14.64-1.12l59.38,82.13c45.35-26.62,87.58,32.14,46.57,65.26l60.17,83.27c1.98,3.13,1.58,8.46-1.16,10.93ZM155.59,319.99c29.84-13.54,58.72-29.56,89.06-42.02,26.31-10.8,52.53-17.13,80.1-23.79,27.55-6.66,62.64-11.03,88.52-19.33,1.03-.33,1.84-.33,2.5-1.44L263.92,23.15c-17.47,28.97-34.29,58.47-52.52,86.99-21.44,33.52-40.71,58.37-68.18,87.17-13.99,14.67-29.11,28.3-42.91,43.17l55.29,79.51ZM350.27,95.62c-1.9.23-11.21,2.46-10.6,5.11l28.01,37.12c18-14.54,6.33-45.07-17.41-42.23ZM88.27,251.72c-1.16-.27-1.71.46-2.53.91-10.29,5.6-52.04,35.92-58.78,44.13-33.5,40.86,14.94,99.38,64.02,68.97,17.59-10.9,34.24-25.96,51.71-37.33l-54.42-76.69ZM179.66,461.15c13.85,11.44,31.82-1.22,25.42-18l-65.82-92.47-25.15,19.13,65.56,91.34Z"/>
      <path class="cls-2" d="M466.99,27.29c9.02-2.02,13.74,8.13,7.23,14.19l-64.01,47.8c-9.45,4.77-16.6-6.14-9.28-13.23l66.06-48.76Z"/>
      <path class="cls-3" d="M408.17,108.52c1.42-1.43,5.81-2.73,7.88-2.06,17.18,8.93,39.68,14.66,56.22,24,9.15,5.17,4.87,17.1-5.25,15.18-16.91-9.09-40-14.57-56.2-23.98-4.71-2.73-6.86-8.9-2.64-13.13Z"/>
      <path class="cls-4" d="M387.83,3.55c7.37-1.61,10.48,3.46,10.17,10.16-.32,6.94-6.09,42.54-8.42,48.02-3.64,8.59-15.9,6.43-15.34-5.4.43-9.16,5.24-37.87,7.97-46.49.95-3.01,2.21-5.54,5.62-6.29Z"/>
    </g>
  </g>
</svg>