<?xml version="1.0" encoding="UTF-8"?>
<svg id="Camada_1" data-name="Camada 1" xmlns="http://www.w3.org/2000/svg" viewBox="0 0 245.5 282.9">
  <defs>
    <style>
      .cls-1 {
        fill: #5b9dcb;
      }
    </style>
  </defs>
  <path class="cls-1" d="M114.53.28C53.5,4.34,4.23,53.6.27,114.64c-.82,12.21.25,23.98,2.74,35.2,0,0,.23,1.32.94,3.82,2.16,8.39,5.25,16.5,9.02,24.08,13.21,28.75,43.18,51.87,108.66,102.9,4.01,3.16,9.75,2.98,13.62-.43,62.16-54.97,89.07-79.87,100.51-109.52,3.35-7.8,5.87-16.03,7.5-24.6.49-2.48.7-3.87.7-3.87,1.21-7.61,1.73-15.39,1.48-23.34C243.27,49.65,184.2-4.36,114.53.28h0ZM124.64,183.77c-32.92,1.03-60.43-24.81-61.46-57.72-1.03-32.92,24.81-60.43,57.72-61.46,32.92-1.03,60.43,24.81,61.46,57.73,1.03,32.91-24.81,60.42-57.73,61.46h0ZM124.64,183.77"/>
</svg>