<?xml version="1.0" encoding="UTF-8"?>
<svg id="Camada_1" data-name="Camada 1" xmlns="http://www.w3.org/2000/svg" xmlns:xlink="http://www.w3.org/1999/xlink" viewBox="0 0 487.33 488.21">
  <defs>
    <style>
      .cls-1 {
        fill: url(#Gradiente_sem_nome_50);
      }

      .cls-2 {
        fill: url(#Gradiente_sem_nome_50-2);
      }

      .cls-3 {
        fill: url(#Gradiente_sem_nome_50-3);
      }
    </style>
    <linearGradient id="Gradiente_sem_nome_50" data-name="Gradiente sem nome 50" x1="236.43" y1="244.1" x2="487.33" y2="244.1" gradientUnits="userSpaceOnUse">
      <stop offset="0" stop-color="#5a9cca"/>
      <stop offset="1" stop-color="#3d6a9b"/>
    </linearGradient>
    <linearGradient id="Gradiente_sem_nome_50-2" data-name="Gradiente sem nome 50" x1="148.15" y1="340.22" x2="280.48" y2="340.22" xlink:href="#Gradiente_sem_nome_50"/>
    <linearGradient id="Gradiente_sem_nome_50-3" data-name="Gradiente sem nome 50" x1="0" y1="399.09" x2="134.12" y2="399.09" xlink:href="#Gradiente_sem_nome_50"/>
  </defs>
  <g id="csGpSP.tif">
    <g>
      <path class="cls-1" d="M337.61,488.21c-7.35,0-14.6-.24-21.6-.92-8.21-.8-20.61-9.02-20.61-19.6V150.97c0-1.77-1.44-3.21-3.21-3.21h-34.25c-3.98,0-11.44-4.11-11.5-4.15-5.01-3.13-8.52-8.38-9.64-14.4-1.09-5.86.26-11.85,3.69-16.43l.75-.86L346.69,6.3c.84-.84,1.75-1.6,2.72-2.27l.86-.6c3.26-2.25,7.07-3.44,11.02-3.44,5.26,0,10.13,2.02,13.79,5.67h0s106.56,106.56,106.56,106.56c3.66,3.66,5.68,8.53,5.68,13.71,0,3.77-1.1,7.44-3.17,10.62-1.45,2.23-3.35,5.14-6.55,7.18-1.22.78-8.47,4.02-11.72,4.02h-34.25c-1.77,0-3.21,1.44-3.21,3.21v316.72c0,7.56-7.02,14.01-11.16,16.63-3.22,2.03-7.06,3-11.11,2.75-12.95-.75-27.11-.17-40.79.38-9.19.37-18.55.75-27.77.75ZM311.58,467.18c.85,1.46,4.34,3.83,5.99,4,14.68,1.43,31.19.75,47.15.11,14.09-.57,28.64-1.16,42.38-.37.61.04,1.2-.06,1.53-.27,1.76-1.11,3.16-2.78,3.63-3.62V150.97c0-10.69,8.7-19.39,19.39-19.39h33.24c1.14-.38,3.18-1.15,4.11-1.57.36-.37,1.06-1.45,1.53-2.18.42-.64.61-1.25.61-1.88,0-.86-.33-1.66-.94-2.26l-106.56-106.56c-1.12-1.13-3.03-1.17-4.17-.38l-.87.6c-.17.12-.32.25-.47.39l-104.93,105.11c-.55.93-.73,2.15-.5,3.41.29,1.55,1.15,2.91,2.31,3.63.55.3,2.74,1.25,3.95,1.68h33.22c10.69,0,19.39,8.7,19.39,19.39v316.21ZM412.38,466.77h0Z"/>
      <path class="cls-2" d="M238.5,488.16c-8.94,0-18.01-.36-26.9-.7-13.83-.55-28.12-1.11-41.21-.27-1.62.1-2.97.04-4.29-.19-6.27-1.11-11.35-4.45-14.7-9.67-1.82-2.82-2.78-6.27-2.79-9.98l-.45-255.95.06-.49c.8-6.62,4.99-12.65,11.21-16.14h0c2.66-1.49,5.69-2.25,9.03-2.25l92.74-.23.49.06c5.42.65,10.52,3.57,14,8.01,2.4,3.04,3.71,6.91,3.78,11.17,1.57,86.79,1.04,174.25.23,255.84-.04,3.88-1.16,7.54-3.26,10.6-2.59,3.78-7.61,8.47-16.79,9.33-6.87.65-13.98.87-21.16.87ZM185.26,470.57c8.97,0,18.07.36,26.97.71,15.51.61,31.55,1.24,45.9-.11,3.14-.3,4.26-1.36,4.96-2.37.26-.39.42-.97.42-1.6.81-81.47,1.34-168.81-.23-255.4-.01-.87-.23-1.34-.32-1.45-.74-.94-1.84-1.65-2.87-1.88l-91.6.22c-.65,0-1.04.12-1.16.18-1.25.7-2.64,2-3,3.62l.45,254.83c0,.75.15,1.15.21,1.24.92,1.43,2.08,2.17,3.9,2.49.11,0,.29,0,.46-.02,5.21-.33,10.53-.46,15.9-.46Z"/>
      <path class="cls-3" d="M90.33,488.11c-8.94,0-17.98-.34-26.86-.67-13.82-.51-28.1-1.04-41.27-.25-1.04.06-2.59.1-4.29-.22-10.23-1.9-17.59-10.48-17.91-20.85v-134.55c.01-.97.05-2.28.37-3.72,1.56-7.15,7.37-13.75,14.45-16.44,1.96-.74,4.13-1.12,6.47-1.12l88.4-.22c1.28,0,2.42.1,3.51.3,18.24,3.3,19.48,18.99,19.89,24.15,1.71,21.87.95,45.03.2,67.42-.66,19.92-1.35,40.53-.24,59.8.07,1.09.04,2.17-.08,3.2-2,17.96-14.33,21.71-21.5,22.34-6.89.61-13.98.82-21.14.82ZM37.14,470.6c8.97,0,18.05.34,26.94.67,15.48.58,31.49,1.17,45.97-.11,3.4-.3,6.06-1.08,6.84-8.03.02-.16.01-.3,0-.43-1.15-20.04-.45-41.01.22-61.3.73-21.95,1.49-44.65-.16-65.62-.63-8.04-2.71-8.78-6.65-9.49-.02,0-.19-.03-.59-.03l-88.38.22c-.56,0-.78.07-.78.07-1.93.73-3.98,2.95-4.37,4.74h0s.02.14.02.28l-.02,134.3c.08,2.49,1.96,4.68,4.68,5.18.05,0,.22-.02.38-.03,5.21-.32,10.53-.43,15.89-.43Z"/>
    </g>
  </g>
</svg>