<?xml version="1.0" encoding="UTF-8"?>
<svg id="Camada_1" data-name="Camada 1" xmlns="http://www.w3.org/2000/svg" viewBox="0 0 2268.36 415.17">
  <defs>
    <style>
      .cls-1 {
        fill: #050006;
      }
    </style>
  </defs>
  <path class="cls-1" d="M226.25,298.55h-115.46v110.21H0V.58h226.83c90.97.58,118.95,85.72,118.95,149.86s-28.57,147.53-119.54,148.11ZM230.33,151.02c0-40.23-16.33-57.73-44.32-57.73h-75.22v111.96h75.22c26.24,0,44.32-13.99,44.32-54.23Z"/>
  <path class="cls-1" d="M675.89.58v408.18h-109.62v-67.64h-134.7l-27.41,67.64h-117.79l123.04-297.39C446.73,21.57,471.8.58,566.27.58h109.62ZM566.27,93.88c-25.66,3.5-44.9,27.41-65.89,78.72l-30.9,75.8h96.8V93.88Z"/>
  <path class="cls-1" d="M1089.9,408.76c-22.74,4.08-41.98,6.41-58.89,6.41-64.14,0-91.55-29.74-126.54-86.3l-18.66-30.32h-49.56v110.21h-110.79V.58h226.83c90.97.58,118.95,85.72,118.95,149.86,0,50.15-17.49,112.54-69.39,137.03l88.05,121.29ZM955.78,151.02c0-40.23-16.33-57.73-44.32-57.73h-75.22v111.96h75.22c26.24,0,44.32-13.99,44.32-54.23Z"/>
  <path class="cls-1" d="M1418.89,0v92.71h-114.29v315.46h-110.79V92.71h-114.29V0h339.37Z"/>
  <path class="cls-1" d="M1814.7,233.83c0,115.46-51.9,178.43-181.93,178.43h-8.16c-130.03,0-182.51-62.97-182.51-178.43V.58h110.79v233.24c0,66.47,29.16,85.72,66.47,85.72h18.66c37.32,0,65.89-19.24,65.89-85.72V.58h110.79v233.24Z"/>
  <path class="cls-1" d="M2268.36.58v408.18h-110.79v-208.17l-25.66,86.88c-16.33,54.23-22.74,68.22-64.73,68.22h-7.58c-42.57,0-48.4-13.99-64.73-68.22l-25.66-86.88v208.17h-110.79V.58h65.89c69.39,0,86.88,27.41,103.21,79.89l35.57,113.71,35.57-113.71c16.33-52.48,34.4-79.89,103.21-79.89h66.47Z"/>
</svg>