<?xml version="1.0" standalone="no"?>
<!DOCTYPE svg PUBLIC "-//W3C//DTD SVG 20010904//EN"
 "http://www.w3.org/TR/2001/REC-SVG-20010904/DTD/svg10.dtd">
<svg version="1.0" xmlns="http://www.w3.org/2000/svg"
 width="348.000000pt" height="234.000000pt" viewBox="0 0 348.000000 234.000000"
 preserveAspectRatio="xMidYMid meet">

<g transform="translate(0.000000,234.000000) scale(0.100000,-0.100000)"
fill="#000000" stroke="none">
<path d="M1695 2292 c-27 -10 -140 -69 -250 -131 -110 -63 -222 -126 -249
-140 -98 -52 -164 -143 -181 -248 l-7 -43 115 0 115 0 19 37 c27 51 61 76 273
194 l185 104 70 0 70 0 205 -121 c165 -97 211 -130 235 -163 l30 -43 3 -258
c4 -349 14 -331 -286 -500 -100 -56 -200 -107 -222 -112 -56 -14 -116 3 -214
61 -45 26 -91 53 -103 60 l-23 12 0 -125 0 -124 81 -47 c102 -59 148 -75 213
-75 77 0 102 10 300 121 392 221 414 237 452 335 17 45 19 79 19 389 l0 340
-25 48 c-13 27 -42 65 -65 85 -52 48 -531 330 -592 348 -61 18 -107 17 -168
-4z"/>
<path d="M1640 1726 c-63 -35 -123 -74 -132 -87 -15 -20 -18 -50 -20 -170 -3
-174 -11 -161 134 -250 136 -84 151 -88 219 -54 106 54 204 114 216 134 8 13
13 72 14 171 1 128 -1 153 -15 169 -31 34 -242 151 -272 151 -18 0 -77 -26
-144 -64z"/>
<path d="M502 1658 c-19 -19 -15 -66 7 -78 23 -12 759 -14 777 -2 18 12 24 41
14 67 l-10 25 -388 0 c-288 0 -391 -3 -400 -12z"/>
<path d="M212 1478 c-15 -15 -15 -51 0 -66 9 -9 144 -12 545 -12 516 0 533 1
543 19 7 13 7 28 0 45 l-10 26 -533 0 c-401 0 -536 -3 -545 -12z"/>
<path d="M508 1319 c-21 -12 -24 -59 -6 -77 15 -15 764 -17 787 -3 15 10 20
66 7 79 -12 12 -768 13 -788 1z"/>
<path d="M1020 1128 c1 -55 88 -161 169 -206 l41 -23 0 121 0 120 -105 0 c-77
0 -105 -3 -105 -12z"/>
<path d="M842 373 l3 -148 28 -3 c26 -3 27 -2 27 42 0 44 1 46 29 46 89 0 141
37 141 102 0 80 -40 108 -155 108 l-76 0 3 -147z m156 75 c7 -7 12 -21 12 -33
0 -32 -20 -45 -67 -45 l-43 0 0 45 0 45 43 0 c24 0 48 -5 55 -12z"/>
<path d="M1192 503 c-20 -39 -112 -262 -112 -272 0 -6 11 -11 25 -11 19 0 29
9 42 35 17 35 17 35 80 35 64 0 64 0 79 -35 12 -29 19 -35 45 -35 21 0 30 4
26 13 -2 6 -31 74 -62 150 -55 130 -59 137 -86 137 -17 0 -32 -7 -37 -17z m53
-99 c23 -55 20 -64 -20 -64 -19 0 -35 4 -35 10 0 12 31 90 36 90 2 0 11 -16
19 -36z"/>
<path d="M1430 370 l0 -150 30 0 c29 0 30 1 30 50 0 48 1 50 28 50 21 0 34
-11 60 -50 28 -44 36 -50 67 -50 40 0 39 2 -8 70 l-24 35 28 26 c22 20 29 36
29 64 0 78 -40 105 -160 105 l-80 0 0 -150z m168 78 c33 -33 -3 -78 -65 -78
l-43 0 0 45 0 45 48 0 c26 0 53 -5 60 -12z"/>
<path d="M1710 490 c0 -29 2 -30 45 -30 l45 0 0 -120 0 -120 30 0 30 0 0 120
0 120 45 0 c43 0 45 1 45 30 l0 30 -120 0 -120 0 0 -30z"/>
<path d="M2000 433 c0 -105 11 -152 44 -182 33 -31 102 -39 149 -16 53 25 67
64 67 184 l0 101 -30 0 -30 0 0 -100 c0 -113 -14 -140 -69 -140 -52 0 -61 20
-61 136 l0 104 -35 0 -35 0 0 -87z"/>
<path d="M2330 370 l0 -150 30 0 29 0 3 97 3 96 38 -56 c20 -31 39 -57 42 -57
3 0 22 26 42 57 l38 56 5 -94 c5 -94 5 -94 33 -97 l27 -3 0 150 0 151 -33 0
c-29 0 -36 -6 -65 -55 -18 -30 -37 -57 -42 -60 -5 -3 -26 21 -47 55 -34 53
-42 60 -70 60 l-33 0 0 -150z"/>
<path d="M852 118 l2 -53 3 47 c4 44 6 47 36 51 31 4 31 4 -5 5 l-38 2 2 -52z"/>
<path d="M1111 131 c-1 -40 -2 -42 -18 -30 -13 10 -13 8 2 -10 l20 -23 3 26
c2 14 1 38 -1 53 -3 19 -4 14 -6 -16z"/>
<path d="M1285 160 c27 -12 43 -12 25 0 -8 5 -22 9 -30 9 -10 0 -8 -3 5 -9z"/>
<path d="M1440 120 l0 -50 33 1 c30 2 30 2 5 6 -25 4 -28 8 -28 43 0 36 2 39
33 43 31 4 31 4 -5 5 l-38 2 0 -50z"/>
<path d="M1630 163 c0 -6 18 -30 40 -54 l40 -44 -2 55 -1 55 -6 -43 -6 -43
-32 42 c-18 24 -33 38 -33 32z"/>
<path d="M1833 120 c0 -30 2 -43 4 -28 2 16 2 40 0 55 -2 16 -4 3 -4 -27z"/>
<path d="M2056 154 c-8 -22 -4 -25 11 -9 7 8 9 16 4 19 -5 3 -12 -1 -15 -10z"/>
<path d="M2230 119 c0 -29 3 -50 6 -46 4 3 6 25 6 47 -1 39 1 41 26 38 21 -2
27 -8 26 -26 0 -16 2 -20 10 -12 17 17 -7 45 -43 48 l-31 3 0 -52z"/>
<path d="M2586 154 c-8 -22 -4 -25 11 -9 7 8 9 16 4 19 -5 3 -12 -1 -15 -10z"/>
<path d="M1032 113 l1 -48 4 43 4 44 22 -19 22 -18 -19 23 c-28 33 -36 27 -34
-25z"/>
<path d="M1239 136 c-8 -17 -8 -29 0 -42 11 -17 11 -17 6 3 -3 12 -1 31 5 43
6 11 8 20 5 20 -3 0 -10 -11 -16 -24z"/>
<path d="M2423 115 c0 -27 2 -38 4 -22 2 15 2 37 0 50 -2 12 -4 0 -4 -28z"/>
<path d="M2084 123 c6 -19 3 -23 -12 -23 -11 0 -22 5 -24 12 -3 7 -7 6 -11 -5
-5 -14 0 -17 26 -17 18 0 39 -6 45 -12 7 -7 5 3 -4 22 -21 43 -29 52 -20 23z"/>
<path d="M2614 123 c6 -19 3 -23 -12 -23 -11 0 -22 5 -24 12 -3 7 -7 6 -11 -5
-5 -14 0 -17 26 -17 18 0 39 -6 45 -12 7 -7 5 3 -4 22 -21 43 -29 52 -20 23z"/>
<path d="M1298 113 c21 -8 13 -31 -13 -36 -23 -4 -23 -4 2 -3 21 1 29 7 31 24
3 16 -1 22 -15 21 -10 0 -13 -3 -5 -6z"/>
<path d="M1896 107 c3 -10 9 -15 12 -12 3 3 0 11 -7 18 -10 9 -11 8 -5 -6z"/>
<path d="M2285 90 c10 -11 20 -20 23 -20 3 0 -3 9 -13 20 -10 11 -20 20 -23
20 -3 0 3 -9 13 -20z"/>
<path d="M878 73 c6 -2 18 -2 25 0 6 3 1 5 -13 5 -14 0 -19 -2 -12 -5z"/>
</g>
</svg>
